<svg width="23" height="23" viewBox="0 0 23 23" fill="none" xmlns="http://www.w3.org/2000/svg">
<path d="M14.9363 16.3148L14.9363 16.3148L15.012 16.2518L17.8635 19.0977C17.9931 19.2271 18.1172 19.3509 18.236 19.4695C19.5645 20.7958 20.2337 21.4639 20.6169 21.7897C20.8241 21.9659 20.9613 22.0545 21.0839 22.086C21.1905 22.1134 21.2815 22.0946 21.3671 22.0768C21.3826 22.0737 21.3979 22.0705 21.413 22.0677C21.5598 22.0401 21.7095 21.9416 21.8256 21.8255C21.9416 21.7095 22.0401 21.5597 22.0677 21.413C22.0705 21.3978 22.0737 21.3825 22.0769 21.3671C22.0946 21.2814 22.1134 21.1904 22.086 21.0838C22.0545 20.9612 21.9659 20.824 21.7897 20.6168C21.4639 20.2335 20.7958 19.5642 19.4696 18.2355C19.3511 18.1168 19.2273 17.9928 19.098 17.8632L16.2523 15.0114L16.3152 14.9357L16.3153 14.9356C16.587 14.6084 17.0483 13.8767 17.2977 13.3793C19.2418 9.50265 17.9632 4.77623 14.3123 2.33062L14.2567 2.41371L14.3123 2.33062C12.6343 1.20658 10.4497 0.700789 8.44372 0.971762C5.9123 1.31365 3.68812 2.71205 2.3103 4.82899C0.429857 7.71817 0.429974 11.3698 2.3102 14.27C4.42964 17.5392 8.53611 18.9847 12.244 17.767C13.1365 17.4739 14.2871 16.8539 14.9363 16.3148ZM2.78474 10.8979L2.68708 10.9194L2.78474 10.8979C2.71252 10.5696 2.67532 10.0624 2.67532 9.54957C2.67532 9.03677 2.71252 8.52957 2.78474 8.20123L2.68708 8.17975L2.78474 8.20123C3.29756 5.86956 4.80958 4.0497 6.97243 3.15794C7.45102 2.96062 8.19343 2.76361 8.69695 2.70025L8.69696 2.70024C8.93513 2.67024 9.3494 2.66417 9.76837 2.67783C10.1874 2.6915 10.6 2.72455 10.8349 2.76998L10.8539 2.6718L10.8349 2.76998C11.7253 2.94209 12.6134 3.31018 13.4049 3.83586C13.9725 4.21289 14.7611 4.98254 15.1714 5.56045C15.7301 6.34745 16.1457 7.33278 16.3382 8.32913L16.4364 8.31016L16.3382 8.32913C16.3945 8.62025 16.4235 9.08224 16.4235 9.54957C16.4235 10.0169 16.3945 10.4789 16.3382 10.77L16.4364 10.789L16.3382 10.77C15.7854 13.6305 13.6113 15.8032 10.7715 16.3347C10.1178 16.4571 8.98347 16.4571 8.32971 16.3347C6.1925 15.9346 4.35073 14.5555 3.39872 12.6441L3.30921 12.6887L3.39872 12.6441C3.09787 12.0401 2.93256 11.57 2.78474 10.8979Z" fill="white" stroke="white" stroke-width="0.2"/>
</svg>
