<svg width="22" height="22" viewBox="0 0 22 22" fill="none" xmlns="http://www.w3.org/2000/svg">
<path fill-rule="evenodd" clip-rule="evenodd" d="M17.2844 0.055988C16.5451 0.269038 15.9866 0.926605 15.8801 1.70956C15.7932 2.34738 15.9721 2.93191 16.392 3.38278C16.6656 3.67665 16.8669 3.80863 17.2588 3.95116L17.5485 4.05655L17.1182 4.14146C15.4098 4.47861 14.162 5.78085 13.8455 7.55695C13.8186 7.70794 13.8352 7.72966 14.1712 7.98108C15.3015 8.82712 16.0531 10.0511 16.289 11.4303C16.4525 12.386 16.3956 15.3158 16.2907 15.813C16.1814 16.3313 15.8829 16.9013 15.5073 17.3088L15.1839 17.6596L15.1978 19.6613L15.2116 21.6629L15.3948 21.8315L15.5779 22H17.8632C20.3704 22 20.322 22.0055 20.5001 21.7025C20.5722 21.58 20.5804 21.2342 20.5811 18.2988C20.5815 16.5017 20.598 15.0092 20.6178 14.9821C20.6376 14.955 20.763 14.8776 20.8963 14.8101C21.444 14.5328 21.8548 13.9283 21.9508 13.2584C22.0162 12.8023 22.0165 8.45943 21.9512 7.82053C21.7509 5.85999 20.3718 4.40361 18.423 4.09472L18.2024 4.0597L18.4891 3.96574C19.456 3.64867 20.0698 2.66902 19.9019 1.71109C19.7777 1.00314 19.3742 0.450174 18.7761 0.168373C18.4902 0.0336292 18.3871 0.0120091 17.9818 0.00142062C17.6999 -0.00591742 17.4246 0.0156041 17.2844 0.055988ZM10.4436 4.19883C9.67857 4.40577 9.15062 4.98317 9.00476 5.77257C8.81046 6.82398 9.41126 7.83766 10.3916 8.11237C10.6412 8.18231 10.6773 8.20407 10.5784 8.22496C9.29526 8.49572 8.7304 8.78009 8.05061 9.49754C7.53683 10.0397 7.27497 10.494 7.07341 11.1926C6.89176 11.8222 6.89823 11.8592 7.23138 12.0965C7.87023 12.5518 8.56772 13.3753 8.9244 14.0956C9.52334 15.3051 9.6743 17.2547 9.25378 18.35C9.09552 18.7623 8.74304 19.3041 8.45103 19.5842L8.27403 19.7539V20.6076C8.27403 21.5718 8.31311 21.7383 8.57752 21.9002C8.73407 21.9961 8.81933 21.9996 10.9951 21.9996C13.171 21.9996 13.2562 21.9961 13.4128 21.9002C13.7138 21.7159 13.7163 21.6944 13.7163 19.2439V17.0264L13.9409 16.9203C14.264 16.7678 14.6567 16.3866 14.8314 16.0558C15.0788 15.5875 15.0998 15.361 15.0777 13.4043C15.0579 11.6489 15.0566 11.6293 14.9257 11.1994C14.6866 10.4139 14.3496 9.87341 13.75 9.31379C13.1637 8.76654 12.6 8.47435 11.8054 8.30592C11.5755 8.25716 11.3763 8.21456 11.3629 8.21122C11.3494 8.20782 11.4617 8.16541 11.6125 8.117C12.4466 7.84894 13.0298 7.04471 13.0298 6.16282C13.0298 4.81626 11.7511 3.84518 10.4436 4.19883ZM3.72345 8.31301C3.11427 8.4187 2.50092 8.88321 2.26607 9.41663C2.08995 9.81657 2.02014 10.3081 2.08951 10.6594C2.24871 11.4655 2.86197 12.1223 3.64079 12.3209C3.76876 12.3535 3.73051 12.3702 3.34662 12.4491C2.49807 12.6234 1.79583 12.9939 1.22239 13.5699C0.455818 14.3399 0.0848152 15.2247 0.0107814 16.4595C-0.065949 17.7388 0.264065 18.5025 1.09128 18.9602L1.38546 19.123L1.40997 20.3768C1.43635 21.726 1.44361 21.7637 1.70768 21.9204C1.82608 21.9906 2.1106 22 4.12711 22H6.41235L6.59553 21.8315L6.77865 21.663L6.79321 20.386L6.80772 19.109L7.06037 18.9909C7.42382 18.8209 7.8038 18.428 7.9932 18.0264L8.15146 17.6907L8.26139 17.3601L8.33493 16.8677C8.33493 15.9722 8.14102 15.6873 8.03649 15.3514C7.56105 13.8245 6.40956 12.7642 4.89211 12.4563L4.42864 12.3622L4.69663 12.2752C5.66937 11.959 6.2508 11.0365 6.10994 10.0326C6.05983 9.67538 5.85955 9.20505 5.65319 8.95989C5.23257 8.46031 4.4283 8.19068 3.72345 8.31301Z" fill="#9E9E9E"/>
</svg>
