<svg width="19" height="19" viewBox="0 0 19 19" fill="none" xmlns="http://www.w3.org/2000/svg">
<path fill-rule="evenodd" clip-rule="evenodd" d="M14.56 0.345994C13.9501 0.521756 13.4893 1.06424 13.4014 1.71016C13.3298 2.23635 13.4774 2.71858 13.8238 3.09054C14.0495 3.33297 14.2155 3.44186 14.5389 3.55944L14.7779 3.64639L14.4229 3.71643C13.0135 3.99458 11.9841 5.0689 11.723 6.53415C11.7008 6.65872 11.7145 6.67664 11.9917 6.88405C12.9242 7.58202 13.5442 8.59178 13.7388 9.7296C13.8737 10.5181 13.8268 12.935 13.7402 13.3452C13.65 13.7729 13.4038 14.2431 13.094 14.5792L12.8272 14.8687L12.8386 16.52L12.85 18.1713L13.0011 18.3104L13.1522 18.4494H15.0375C17.1059 18.4494 17.066 18.4539 17.2129 18.204C17.2724 18.103 17.2792 17.8177 17.2797 15.396C17.2801 13.9134 17.2937 12.6821 17.31 12.6597C17.3264 12.6374 17.4298 12.5736 17.5398 12.5179C17.9916 12.2891 18.3305 11.7904 18.4097 11.2377C18.4636 10.8615 18.4639 7.27868 18.41 6.7516C18.2448 5.13419 17.1071 3.9327 15.4994 3.67788L15.3174 3.64899L15.5539 3.57147C16.3515 3.3099 16.8579 2.5017 16.7194 1.71142C16.6169 1.12738 16.2841 0.67119 15.7906 0.43871C15.5547 0.327548 15.4698 0.309712 15.1353 0.300977C14.9028 0.294923 14.6756 0.312678 14.56 0.345994ZM8.91649 3.76377C8.28534 3.93449 7.84979 4.41083 7.72946 5.06207C7.56916 5.92947 8.06481 6.76574 8.87357 6.99237C9.07945 7.05006 9.10926 7.06802 9.02768 7.08525C7.96911 7.30863 7.50311 7.54322 6.9423 8.13511C6.51844 8.58239 6.30241 8.95716 6.13613 9.53348C5.98627 10.0529 5.99161 10.0834 6.26645 10.2792C6.79349 10.6548 7.3689 11.3342 7.66316 11.9284C8.15728 12.9262 8.28182 14.5346 7.93489 15.4383C7.80433 15.7784 7.51354 16.2254 7.27264 16.4564L7.12662 16.5964V17.3007C7.12662 18.0962 7.15886 18.2335 7.37699 18.3671C7.50614 18.4462 7.57648 18.4491 9.37149 18.4491C11.1665 18.4491 11.2368 18.4462 11.366 18.3671C11.6143 18.215 11.6164 18.1973 11.6164 16.1757V14.3463L11.8017 14.2587C12.0682 14.1329 12.3922 13.8184 12.5363 13.5456C12.7404 13.1592 12.7578 12.9724 12.7396 11.3581C12.7232 9.90995 12.7221 9.89378 12.6141 9.53913C12.4169 8.89109 12.1389 8.44519 11.6442 7.98352C11.1605 7.53205 10.6954 7.29099 10.0399 7.15204C9.85027 7.11182 9.68597 7.07667 9.67485 7.07391C9.66372 7.07111 9.75639 7.03613 9.88077 6.99619C10.5689 6.77504 11.0501 6.11157 11.0501 5.38402C11.0501 4.27313 9.99516 3.47201 8.91649 3.76377ZM3.37247 7.15789C2.86991 7.24508 2.3639 7.6283 2.17015 8.06835C2.02487 8.3983 1.96727 8.80378 2.0245 9.09359C2.15584 9.75861 2.66176 10.3005 3.30428 10.4643C3.40985 10.4912 3.3783 10.505 3.06159 10.5701C2.36155 10.7138 1.78222 11.0195 1.30914 11.4947C0.676731 12.13 0.370661 12.8599 0.309584 13.8786C0.246283 14.934 0.518539 15.564 1.20098 15.9416L1.44367 16.076L1.46389 17.1103C1.48565 18.2234 1.49164 18.2545 1.70949 18.3837C1.80717 18.4417 2.04189 18.4494 3.70548 18.4494H5.59077L5.74188 18.3104L5.89295 18.1714L5.90497 17.1179L5.91694 16.0644L6.12537 15.9669C6.42521 15.8267 6.73868 15.5026 6.89493 15.1712L7.0255 14.8943L7.11619 14.6216L7.17686 14.2153C7.17686 13.4766 7.01688 13.2415 6.93065 12.9645C6.53842 11.7047 5.58846 10.83 4.33659 10.576L3.95424 10.4984L4.17533 10.4266C4.97782 10.1658 5.45749 9.40473 5.34128 8.5765C5.29994 8.28182 5.13471 7.89381 4.96447 7.69156C4.61746 7.27941 3.95395 7.05697 3.37247 7.15789Z" fill="#9E9E9E"/>
</svg>
