<svg width="17" height="12" viewBox="0 0 17 12" fill="none" xmlns="http://www.w3.org/2000/svg">
<path fill-rule="evenodd" clip-rule="evenodd" d="M1.28307 0.0445701C0.787184 0.127225 0.542579 -0.161624 4.18585 3.47244C6.00445 5.28645 7.5443 6.81158 7.60767 6.86154C8.09303 7.24421 8.90803 7.24421 9.3934 6.86154C9.45677 6.81158 10.9966 5.28645 12.8152 3.47244C15.6584 0.636441 16.1105 0.168198 16.0411 0.13099C15.9967 0.107159 15.8331 0.0669834 15.6775 0.0416908C15.3246 -0.0157156 1.62817 -0.0129692 1.28307 0.0445701ZM0.132076 0.958246C0.00356391 1.1989 -0.00938443 1.72942 0.00431523 6.19632C0.0181917 10.7197 0.0273835 11.0024 0.16354 11.0868C0.182366 11.0984 1.34498 9.95791 2.74716 8.55233L5.29658 5.99673L2.73824 3.4327C0.417382 1.10672 0.175428 0.877008 0.132076 0.958246ZM14.2539 3.44165L11.7045 5.99726L14.2628 8.56128C17.1246 11.4293 16.8722 11.2349 16.9637 10.642C16.9953 10.4376 17.0061 8.84929 16.9967 5.79766C16.9829 1.27429 16.9737 0.991555 16.8375 0.907217C16.8187 0.895568 15.6561 2.03608 14.2539 3.44165ZM3.43055 9.27545C0.605553 12.0932 0.785328 11.8648 1.32359 11.9523C1.71465 12.0159 15.2864 12.0159 15.6775 11.9523C16.216 11.8647 16.3936 12.0907 13.5927 9.30026C12.2017 7.91448 11.0495 6.76622 11.0321 6.74846C11.0148 6.73074 10.7715 6.93543 10.4916 7.20337C9.75657 7.90695 9.25273 8.14531 8.50053 8.14531C7.75041 8.14531 7.24405 7.90651 6.5155 7.20917C6.23894 6.94446 6.00565 6.72857 5.99712 6.72946C5.98855 6.7303 4.83362 7.87599 3.43055 9.27545Z" fill="white"/>
</svg>
