<svg width="13" height="21" viewBox="0 0 13 21" fill="none" xmlns="http://www.w3.org/2000/svg">
<path fill-rule="evenodd" clip-rule="evenodd" d="M5.86922 0.566222C4.19907 0.744854 2.66887 1.65379 1.65664 3.06844C1.33006 3.52483 1.22798 3.69952 1.00634 4.18119C0.489228 5.30494 0.279175 6.45348 0.367618 7.67388C0.444147 8.7302 0.696252 9.55742 1.30561 10.7517C1.5135 11.159 2.06807 12.2455 2.53797 13.1659C3.00791 14.0864 3.78199 15.6027 4.2582 16.5355C4.73436 17.4683 5.30253 18.5806 5.52077 19.0074C5.73902 19.4341 5.97028 19.8896 6.03473 20.0195C6.21821 20.3895 6.48432 20.4853 6.70256 20.2599C7.04269 19.8358 11.1623 11.6791 11.8533 10.2509C12.6954 8.51046 12.7944 6.53315 12.1304 4.71704C11.5708 3.18646 10.5296 1.96628 9.14492 1.21863C8.4519 0.844433 7.80942 0.651037 6.97477 0.56538C6.47879 0.514481 6.35194 0.51457 5.86922 0.566222ZM7.04205 3.9083C7.8821 4.10107 8.65024 4.68538 9.07797 5.45693C9.55949 6.32548 9.62902 7.56832 9.24728 8.48355C8.84564 9.44649 7.98458 10.1888 7.03693 10.3892C4.96902 10.8265 3.09488 8.86839 3.44468 6.63605C3.69732 5.02376 4.94003 3.86033 6.422 3.84862C6.61342 3.84712 6.89243 3.87394 7.04205 3.9083Z" fill="#9E9E9E"/>
</svg>
