<svg width="26" height="26" viewBox="0 0 26 26" fill="none" xmlns="http://www.w3.org/2000/svg">
<path d="M24.9167 14H1.08333C0.485331 14 0 13.552 0 13C0 12.448 0.485331 12 1.08333 12H24.9167C25.5147 12 26 12.448 26 13C26 13.552 25.5147 14 24.9167 14Z" fill="#9E9E9E"/>
<path d="M24.9167 5.75529H1.08333C0.485331 5.75529 0 5.26996 0 4.67196C0 4.07395 0.485331 3.58862 1.08333 3.58862H24.9167C25.5147 3.58862 26 4.07395 26 4.67196C26 5.26996 25.5147 5.75529 24.9167 5.75529Z" fill="#9E9E9E"/>
<path d="M24.9167 22H1.08333C0.485331 22 0 21.552 0 21C0 20.448 0.485331 20 1.08333 20H24.9167C25.5147 20 26 20.448 26 21C26 21.552 25.5147 22 24.9167 22Z" fill="#9E9E9E"/>
</svg>
