<svg width="17" height="19" viewBox="0 0 17 19" fill="none" xmlns="http://www.w3.org/2000/svg">
<path fill-rule="evenodd" clip-rule="evenodd" d="M6.47803 1.0404C4.73543 1.09288 2.78367 1.25926 2.32908 1.39411C1.46731 1.64974 0.755777 2.31759 0.433118 3.17373C0.265701 3.61802 0.118758 5.05329 0.0359038 7.05435C-0.0863545 10.0061 0.11784 14.0131 0.433118 14.8498C0.755777 15.7059 1.46731 16.3738 2.32908 16.6294C2.81044 16.7722 4.71504 16.9279 6.67559 16.9848C8.76837 17.0454 11.8661 16.9185 13.2249 16.7163C14.3229 16.5529 15.1838 15.8663 15.5677 14.8476C15.7343 14.4056 15.8814 12.9659 15.9641 10.9692C16.0864 8.01739 15.8822 4.01037 15.5669 3.17373C15.3035 2.47481 14.806 1.91836 14.1483 1.58706C13.6539 1.33805 13.3969 1.29278 11.732 1.1616C10.8039 1.08846 8.24335 0.985637 7.74981 1.00167C7.64661 1.00504 7.07431 1.02245 6.47803 1.0404ZM9.63468 4.30182C10.5182 4.42767 10.7634 4.50955 11.2799 4.85126C11.8455 5.22546 12.3575 5.84504 12.5476 6.38525C12.943 7.50892 12.9081 9.97759 12.4827 10.9668C12.2156 11.5882 11.472 12.3048 10.7805 12.6074C10.3199 12.809 9.22267 12.9501 8.11976 12.9495L7.31198 12.9491L6.72821 13.5502C6.09432 14.203 6.00721 14.2561 5.76245 14.1395C5.54491 14.0359 5.49812 13.8777 5.49812 13.2459V12.7088L5.30006 12.6352C4.65699 12.3959 3.90264 11.7116 3.58144 11.0761C3.29893 10.5172 3.18393 9.78039 3.18764 8.55364C3.19064 7.56769 3.28455 6.81067 3.46293 6.33456C3.73964 5.59587 4.62105 4.7601 5.39968 4.49814C5.62484 4.42234 6.53294 4.27258 7.04095 4.22743C7.45459 4.19066 9.20711 4.24093 9.63468 4.30182ZM6.62397 5.14075C5.95359 5.22538 5.70995 5.28148 5.45576 5.40963C4.90993 5.68483 4.39313 6.25535 4.24885 6.74199C4.09365 7.2655 4.0595 7.60708 4.0613 8.61611C4.06284 9.4485 4.07656 9.66194 4.15328 10.0439C4.26808 10.6154 4.38963 10.8417 4.80915 11.2653C5.0801 11.5389 5.21304 11.6365 5.50855 11.7791L5.87341 11.955V12.8677C5.87341 13.7312 5.87762 13.7803 5.95134 13.7803C5.99812 13.7803 6.34997 13.4473 6.83142 12.9474L7.6336 12.1144L7.93145 12.114C8.43028 12.1134 9.3724 12.0343 9.86248 11.952C10.467 11.8505 10.7436 11.7069 11.1927 11.2613C11.8072 10.6516 11.9405 10.1727 11.9405 8.57446C11.9405 7.61067 11.904 7.25758 11.7511 6.74199C11.6543 6.41523 11.3486 5.99185 11.0115 5.71765C10.57 5.3584 10.3175 5.26678 9.46952 5.15804C8.71395 5.06112 7.32162 5.05267 6.62397 5.14075ZM8.50876 6.16377C9.2745 6.32486 10.0257 6.99962 10.2513 7.72911C10.3453 8.0333 10.4319 8.65771 10.3938 8.757C10.363 8.83688 10.2368 8.84591 10.1803 8.77228C10.1583 8.74367 10.1193 8.53294 10.0935 8.304C10.0545 7.95629 10.0191 7.83198 9.87857 7.54878C9.56505 6.91683 8.98061 6.50802 8.24977 6.4094C7.87908 6.35938 7.77045 6.30383 7.81528 6.18717C7.84776 6.10267 8.167 6.09189 8.50876 6.16377ZM6.5319 6.46054C6.64106 6.55104 7.07139 7.15059 7.16337 7.34034C7.28817 7.59788 7.25615 7.71308 6.99141 7.95871C6.79835 8.13787 6.78209 8.16711 6.8064 8.29188C6.93378 8.9457 7.82458 9.82387 8.36044 9.82387C8.50033 9.82387 8.54633 9.79634 8.71787 9.60997C8.90418 9.40761 8.92365 9.39728 9.08023 9.41827C9.3659 9.4565 10.1837 10.0701 10.2313 10.282C10.2812 10.5035 9.88833 10.9871 9.54203 11.1305C9.40918 11.1856 9.37374 11.1838 9.16675 11.1115C8.76311 10.9707 8.03211 10.5814 7.62826 10.2923C7.13594 9.9399 6.72142 9.52788 6.37828 9.04986C6.06355 8.61136 5.5367 7.55473 5.50859 7.30552C5.47465 7.00479 5.68297 6.70251 6.0819 6.4737C6.27104 6.36526 6.41193 6.36113 6.5319 6.46054ZM8.57393 6.80134C9.00796 6.91674 9.41715 7.248 9.60629 7.63711C9.74443 7.92135 9.82879 8.41874 9.75411 8.50862C9.72404 8.54485 9.66454 8.57446 9.62192 8.57446C9.53978 8.57446 9.52256 8.52607 9.48324 8.18544C9.4146 7.59063 8.98778 7.15876 8.34334 7.03211C8.06759 6.97792 7.98274 6.91874 8.0246 6.80975C8.05733 6.72454 8.27266 6.72125 8.57393 6.80134ZM8.7697 7.50455C8.98124 7.62108 9.13101 7.88162 9.14006 8.14874C9.1459 8.32162 9.13568 8.34698 9.05571 8.35835C8.95221 8.37305 8.90034 8.29634 8.85902 8.06745C8.82645 7.88724 8.59186 7.65823 8.43979 7.65823C8.27975 7.65823 8.20849 7.61408 8.20849 7.51496C8.20849 7.46394 8.22254 7.4081 8.23976 7.39085C8.28997 7.3405 8.58798 7.40443 8.7697 7.50455Z" fill="#4200FF"/>
</svg>
