<svg width="14" height="14" viewBox="0 0 14 14" fill="none" xmlns="http://www.w3.org/2000/svg">
<path fill-rule="evenodd" clip-rule="evenodd" d="M2.29869 0.0410743C2.21458 0.0684662 2.09099 0.124859 2.02405 0.166368C1.82784 0.288041 0.289667 1.85871 0.207493 2.0213C0.0439493 2.34489 -0.000580228 2.58008 5.68688e-06 3.11735C0.000371883 3.47271 0.0208787 3.72337 0.0669828 3.93673C0.607855 6.43945 3.03145 9.67821 6.04034 11.9192C7.83639 13.2569 9.55389 14.0003 10.8481 14C11.3154 13.9999 11.5483 13.9526 11.8812 13.7904C12.1265 13.6709 12.2386 13.5741 12.9296 12.8852C13.3671 12.4492 13.7467 12.0384 13.8028 11.9402C14.0415 11.5231 14.065 11.0267 13.8652 10.6233C13.7692 10.4296 13.5815 10.2251 12.6244 9.27235C11.6538 8.30606 11.4664 8.13582 11.279 8.05039C10.9803 7.91423 10.6205 7.89192 10.337 7.99191C9.91555 8.14057 9.68067 8.37222 9.49783 8.81945C9.29576 9.31375 8.76781 9.67975 8.25437 9.68147C7.66025 9.68348 6.54727 9.03741 5.71963 8.21013C5.09493 7.58575 4.66835 6.9621 4.41531 6.3033C4.30889 6.02624 4.28689 5.92047 4.28509 5.67734C4.28326 5.4257 4.29787 5.35435 4.38968 5.16732C4.5459 4.84911 4.73712 4.67931 5.18711 4.45926C5.46952 4.3212 5.61402 4.22605 5.70824 4.11611C6.05126 3.71588 6.12852 3.25339 5.93927 2.73335C5.8731 2.55152 5.75676 2.42242 4.72647 1.38749C3.39025 0.0453167 3.35323 0.0188755 2.78493 0.00146748C2.5758 -0.00493251 2.39464 0.00984234 2.29869 0.0410743Z" fill="white"/>
</svg>
