<svg width="24" height="24" viewBox="0 0 24 24" fill="none" xmlns="http://www.w3.org/2000/svg">
<path fill-rule="evenodd" clip-rule="evenodd" d="M12.3941 0.0920603C12.3582 0.150279 12.135 1.84811 12.16 1.87311C12.1725 1.88564 12.4884 1.95788 12.862 2.03359C16.925 2.85723 20.2645 5.7987 21.6264 9.75335C21.7441 10.0948 21.8924 10.6216 21.956 10.9239C22.0197 11.2262 22.0893 11.4927 22.1107 11.5161C22.1429 11.551 23.8584 11.3058 23.9139 11.2583C23.9449 11.2318 23.7096 10.2075 23.547 9.6609C23.174 8.40691 22.5596 7.09801 21.8362 6.01606C19.993 3.25969 17.2141 1.24635 14.0969 0.409064C13.4027 0.222626 12.4258 0.0407191 12.3941 0.0920603ZM3.63515 2.41584C3.47407 2.45903 3.24643 2.55622 3.12928 2.63182C3.01213 2.70742 2.39853 3.28827 1.76571 3.9226C0.445593 5.24595 0.297398 5.46773 0.140684 6.35545C-0.186163 8.20667 0.905088 11.3653 2.90148 14.3468C4.3839 16.5606 6.44965 18.7453 8.56074 20.332C10.3162 21.6514 12.583 22.8836 14.288 23.4452C15.5528 23.8618 16.9636 24.0233 17.7761 23.8445C18.5771 23.6682 18.807 23.5049 20.1274 22.1741C21.5067 20.7837 21.6069 20.635 21.6069 19.9771C21.6069 19.2567 21.5535 19.1831 19.6471 17.275C18.1762 15.8028 17.9463 15.5937 17.6398 15.449C17.1553 15.2202 16.7523 15.2214 16.263 15.4529C15.9574 15.5974 15.7664 15.7643 14.8598 16.6791C13.9528 17.5943 13.7883 17.7379 13.6479 17.7379C13.5535 17.7379 13.246 17.6118 12.9135 17.4367C11.1639 16.5151 9.34953 14.9318 7.76551 12.9441C7.07348 12.0757 6.24438 10.6569 6.24438 10.341C6.24438 10.2348 6.48592 9.95925 7.32668 9.10628C8.0513 8.37108 8.44711 7.92799 8.52443 7.76549C8.68098 7.43655 8.74238 7.07028 8.68902 6.7842C8.58998 6.25352 8.42906 6.05103 6.81042 4.42044C5.95773 3.56145 5.13594 2.77299 4.98418 2.66834C4.73966 2.49971 4.23448 2.32702 4.0079 2.33459C3.96397 2.33609 3.79623 2.37261 3.63515 2.41584ZM12.1309 4.95598C12.0803 5.18699 11.8878 6.6121 11.9049 6.62922C11.9144 6.63876 12.2031 6.71756 12.5465 6.80441C14.8021 7.3747 16.5609 9.11945 17.137 11.358C17.2036 11.617 17.27 11.8408 17.2845 11.8553C17.322 11.8929 18.988 11.6057 19.0447 11.5519C19.1084 11.4916 18.8961 10.6251 18.6789 10.0584C18.2143 8.84574 17.5984 7.92906 16.6209 6.99522C15.572 5.99319 14.4091 5.35498 12.9682 4.99063C12.2277 4.80339 12.1648 4.80078 12.1309 4.95598Z" fill="#6D80D8"/>
</svg>
