<svg width="22" height="22" viewBox="0 0 22 22" fill="none" xmlns="http://www.w3.org/2000/svg">
<path fill-rule="evenodd" clip-rule="evenodd" d="M9.98978 0.0375741C7.37855 0.308409 5.05373 1.4042 3.21956 3.2287C1.53722 4.90222 0.454194 7.06413 0.087441 9.48068C-0.0164314 10.165 -0.0307569 11.7022 0.0606115 12.3588C0.253539 13.7451 0.634076 14.9743 1.21817 16.0978C1.48819 16.6172 2.1485 17.6018 2.54725 18.0795C3.87184 19.6667 5.7667 20.9313 7.72527 21.5354C8.89002 21.8947 9.62918 21.9996 10.999 22C12.2259 22.0004 12.7988 21.9344 13.7796 21.6799C17.6451 20.6769 20.676 17.6478 21.6797 13.7847C21.9344 12.8045 22.0004 12.232 22 11.0058C21.9996 9.63777 21.8977 8.91914 21.536 7.73327C20.3854 3.96087 17.0524 0.957626 13.1896 0.21267C12.2032 0.022421 10.85 -0.0516219 9.98978 0.0375741ZM11.3426 4.03201C11.4618 4.09291 11.6049 4.20518 11.6607 4.28159C11.7598 4.41738 11.7626 4.48861 11.7866 7.53633L11.8112 10.6522L13.6726 12.139C14.6963 12.9568 15.5697 13.6804 15.6135 13.7471C15.6572 13.8138 15.7021 13.9825 15.7133 14.1221C15.7299 14.329 15.7122 14.4074 15.6174 14.5469C15.383 14.8915 15.0159 15.0252 14.6676 14.8929C14.4864 14.824 10.4431 11.5819 10.3295 11.4144C10.2402 11.2827 10.2353 11.1244 10.2223 7.93695C10.2089 4.643 10.21 4.59459 10.3109 4.38643C10.4153 4.17089 10.5713 4.03693 10.7978 3.96835C11.0102 3.90399 11.1161 3.91639 11.3426 4.03201Z" fill="#9E9E9E"/>
</svg>
