<svg width="18" height="18" viewBox="0 0 18 18" fill="none" xmlns="http://www.w3.org/2000/svg">
<path fill-rule="evenodd" clip-rule="evenodd" d="M8.27443 0.253918C6.16975 0.472213 4.29592 1.35543 2.81756 2.826C1.46158 4.17487 0.58865 5.91739 0.293043 7.86516C0.209321 8.4167 0.197774 9.65574 0.271418 10.1849C0.426919 11.3023 0.733636 12.293 1.20442 13.1986C1.42206 13.6173 1.95427 14.4109 2.27567 14.7959C3.34331 16.0752 4.87058 17.0945 6.4492 17.5814C7.388 17.871 7.98378 17.9555 9.08784 17.9558C10.0768 17.9562 10.5385 17.903 11.329 17.6979C14.4447 16.8894 16.8877 14.448 17.6966 11.3342C17.9019 10.5442 17.9551 10.0827 17.9548 9.09443C17.9545 7.99177 17.8723 7.41254 17.5808 6.45672C16.6534 3.41613 13.9669 0.995488 10.8535 0.395047C10.0585 0.241704 8.96773 0.182025 8.27443 0.253918ZM9.3648 3.47347C9.46086 3.52256 9.57625 3.61305 9.62116 3.67464C9.70108 3.78408 9.7033 3.8415 9.7227 6.29799L9.74254 8.80944L11.2428 10.0078C12.068 10.667 12.7719 11.2502 12.8072 11.304C12.8424 11.3577 12.8786 11.4937 12.8876 11.6062C12.901 11.773 12.8868 11.8362 12.8103 11.9486C12.6214 12.2263 12.3255 12.3341 12.0448 12.2274C11.8988 12.1719 8.63979 9.55874 8.54821 9.42372C8.47627 9.3176 8.47231 9.19 8.46183 6.62089C8.451 3.96593 8.45195 3.92691 8.53321 3.75914C8.61737 3.58541 8.74311 3.47744 8.92571 3.42216C9.09689 3.37029 9.18228 3.38028 9.3648 3.47347Z" fill="#9E9E9E"/>
</svg>
