<svg width="38" height="38" viewBox="0 0 38 38" fill="none" xmlns="http://www.w3.org/2000/svg">
<rect width="38" height="38" fill="#EA2182"/>
<path d="M17.28 11.672C17.264 11.912 17.32 12.232 17.448 12.632C17.576 13 17.648 13.376 17.664 13.76C17.68 13.84 17.688 13.944 17.688 14.072V14.312C17.688 14.344 17.672 14.472 17.64 14.696C17.624 14.712 17.616 14.736 17.616 14.768C17.616 14.816 17.608 14.848 17.592 14.864L17.544 15.056L17.472 15.56C17.424 15.896 17.28 16.288 17.04 16.736C16.8 17.184 16.656 17.552 16.608 17.84C16.56 18.016 16.432 18.208 16.224 18.416C16.016 18.624 15.912 18.824 15.912 19.016C15.912 19.128 16.032 19.272 16.272 19.448C16.88 19.848 17.256 20.24 17.4 20.624C17.672 21.376 17.776 21.952 17.712 22.352C17.68 22.72 17.672 23.048 17.688 23.336C17.736 24.408 17.432 25.296 16.776 26L16.512 26.336C16.192 26.768 15.688 27.144 15 27.464C14.472 27.688 14.104 27.8 13.896 27.8C13.768 27.832 13.664 27.832 13.584 27.8H13.32C13.272 27.784 13.184 27.776 13.056 27.776H11.376C11.248 27.776 11.16 27.768 11.112 27.752H9.816C9.624 27.752 9.488 27.76 9.408 27.776C8.64 27.808 8.072 27.816 7.704 27.8C7.4 27.8 7.12 27.752 6.864 27.656C6.608 27.56 6.48 27.424 6.48 27.248C6.48 27.04 6.568 26.848 6.744 26.672C6.776 26.672 6.808 26.656 6.84 26.624C6.888 26.592 6.92 26.576 6.936 26.576C6.952 26.56 6.984 26.536 7.032 26.504C7.08 26.488 7.112 26.48 7.128 26.48C7.368 26.416 7.56 26.16 7.704 25.712C7.912 24.912 8 24.344 7.968 24.008C7.904 23.496 7.928 22.896 8.04 22.208C8.12 21.632 8.136 21.16 8.088 20.792C8.04 20.456 8.056 19.992 8.136 19.4C8.2 18.968 8.216 18.464 8.184 17.888C8.152 17.6 8.112 17.384 8.064 17.24C7.968 16.984 7.96 16.688 8.04 16.352C8.088 16.144 8.128 15.824 8.16 15.392L8.232 14.48C8.296 13.76 8.344 13.016 8.376 12.248C8.376 11.288 8.248 10.704 7.992 10.496C7.848 10.336 7.664 10.248 7.44 10.232C7.392 10.216 7.328 10.208 7.248 10.208C7.168 10.192 7.104 10.184 7.056 10.184C7.024 10.168 6.976 10.152 6.912 10.136C6.864 10.104 6.824 10.072 6.792 10.04C6.776 10.008 6.752 9.96 6.72 9.896C6.704 9.832 6.696 9.752 6.696 9.656C6.696 9.56 6.704 9.48 6.72 9.416C6.736 9.352 6.76 9.304 6.792 9.272C6.824 9.224 6.856 9.192 6.888 9.176C6.92 9.144 6.976 9.128 7.056 9.128C7.136 9.112 7.2 9.104 7.248 9.104C7.296 9.088 7.376 9.08 7.488 9.08C7.6 9.08 7.688 9.08 7.752 9.08H9.648C9.888 9.08 10.216 9.096 10.632 9.128L11.52 9.2C11.888 9.232 12.232 9.232 12.552 9.2C13.112 9.136 13.864 9.24 14.808 9.512C15.08 9.608 15.352 9.76 15.624 9.968C15.688 10.032 15.824 10.104 16.032 10.184C16.528 10.408 16.88 10.656 17.088 10.928C17.216 11.152 17.28 11.4 17.28 11.672ZM9.84 10.712L9.96 10.832L10.152 10.664L10.08 10.496L9.936 10.52L9.84 10.712ZM14.712 13.04C14.68 12.464 14.52 12.032 14.232 11.744C14.168 11.664 14.08 11.592 13.968 11.528C13.856 11.448 13.768 11.4 13.704 11.384C13.64 11.352 13.512 11.304 13.32 11.24C13.128 11.176 13.016 11.136 12.984 11.12C12.84 11.072 12.752 11.048 12.72 11.048C12.4 11.048 12.2 11.024 12.12 10.976C12.104 10.96 12 10.968 11.808 11C11.36 11.128 11.104 11.432 11.04 11.912C10.992 12.232 10.952 12.792 10.92 13.592C10.888 14.104 10.88 14.424 10.896 14.552V15.2C10.896 15.6 10.848 16.12 10.752 16.76C10.672 17.352 10.736 17.784 10.944 18.056C11.152 18.328 11.528 18.424 12.072 18.344C12.12 18.328 12.224 18.32 12.384 18.32H12.624C12.896 18.352 13.136 18.328 13.344 18.248C13.408 18.232 13.56 18.152 13.8 18.008C14.392 17.624 14.688 17 14.688 16.136C14.688 15.896 14.72 15.72 14.784 15.608L14.88 15.32C14.976 14.968 14.968 14.488 14.856 13.88C14.792 13.576 14.744 13.296 14.712 13.04ZM9.6 11.624L9.48 11.816L9.672 11.792L9.72 11.864H9.864L9.84 11.696L9.768 11.576L9.744 11.504L9.6 11.624ZM15.984 12.2L15.84 12.272L15.936 12.368L16.032 12.248L15.984 12.2ZM9.672 12.44L9.792 12.584L9.96 12.56L9.984 12.44L9.84 12.224L9.672 12.44ZM16.344 12.296L16.296 12.224L16.176 12.272V12.32L16.296 12.368L16.344 12.296ZM16.08 12.68L16.032 12.824L16.176 12.8L16.248 12.68L16.2 12.632L16.08 12.68ZM9.36 13.376H9.552V13.328L9.432 13.28L9.36 13.376ZM9.264 15.128L9.504 15.176L9.552 14.888L9.72 14.912L10.056 15.008L10.032 14.624L9.72 14.432L9.528 14.408L9.264 15.128ZM9.792 15.992L9.912 15.944V15.8H9.84L9.792 15.824V15.992ZM9.192 16.424L9.336 16.376L9.384 16.184L9.24 16.256L9.192 16.424ZM9.6 16.976L9.432 17.048L9.288 17.216L9.48 17.336L9.552 17.576L9.672 17.528L9.792 17.408L10.008 17.336L9.984 17.096L9.84 16.928L9.6 16.976ZM15.072 17.72L15 17.84L15.12 17.864L15.24 17.816L15.264 17.888L15.432 17.96L15.456 17.744L15.36 17.624L15.264 17.528L15.072 17.72ZM15.312 18.464L15.288 18.608L15.384 18.656L15.528 18.68L15.432 18.536V18.416L15.312 18.464ZM10.32 19.016L10.464 19.088L10.584 19.04L10.752 19.112L10.704 18.872H10.584L10.32 19.016ZM9.336 19.232L9.312 19.304L9.456 19.28L9.48 19.256L9.408 19.16L9.336 19.232ZM10.032 19.424L9.96 19.496L9.936 19.64L10.08 19.664L10.152 19.52L10.2 19.304L10.032 19.424ZM9.264 19.688L9.216 19.712L9.168 19.856H9.312L9.336 19.76L9.264 19.688ZM10.44 24.824C10.472 25.416 10.544 25.76 10.656 25.856C10.8 26.048 11.152 26.104 11.712 26.024C11.968 26.008 12.16 25.984 12.288 25.952C12.368 25.936 12.528 25.944 12.768 25.976C13.168 26.04 13.472 26.056 13.68 26.024C13.84 25.992 13.96 25.936 14.04 25.856C14.168 25.728 14.304 25.608 14.448 25.496C14.608 25.384 14.704 25.168 14.736 24.848C14.736 24.752 14.768 24.648 14.832 24.536C14.832 24.52 14.888 24.392 15 24.152C15.176 23.768 15.264 23.528 15.264 23.432V22.976C15.264 22.864 15.248 22.68 15.216 22.424C15.152 22.104 15.12 21.816 15.12 21.56C15.152 21.288 15.016 21.008 14.712 20.72C14.28 20.288 13.688 20.12 12.936 20.216C12.792 20.248 12.656 20.248 12.528 20.216C12.384 20.184 12.248 20.184 12.12 20.216C12.088 20.232 11.976 20.24 11.784 20.24C11.464 20.272 11.208 20.328 11.016 20.408C10.904 20.456 10.816 20.512 10.752 20.576C10.512 20.832 10.392 21.472 10.392 22.496C10.36 23.568 10.376 24.344 10.44 24.824ZM16.752 21.728L16.728 21.8L16.872 21.848L16.944 21.824V21.728H16.752ZM17.088 21.92L17.064 22.016L17.184 22.088L17.328 21.896L17.208 21.776L17.088 21.92ZM15.864 21.92L15.744 22.088L15.864 22.208L15.888 22.304L16.008 22.112H16.104L16.272 22.064L16.08 21.872L15.864 21.92ZM16.104 22.976L16.224 23L16.296 22.856L16.152 22.712L15.936 22.808L16.104 22.976ZM16.8 22.976L16.728 23.072L16.824 23.096L16.968 23.024V22.976H16.8ZM16.296 24.368L16.416 24.416V24.32L16.224 24.2L16.296 24.368ZM9.072 26.84H9.216L9.384 26.792L9.408 26.576L9.312 26.432H9.144L9.072 26.576V26.84ZM20.2749 23.24C20.2749 22.904 20.2589 22.336 20.2269 21.536C20.1309 19.984 20.0749 18.8 20.0589 17.984C20.0429 17.6 20.0509 17.072 20.0829 16.4C20.1149 15.888 20.1069 14.896 20.0589 13.424L19.9869 12.128C19.9709 11.744 19.9309 11.424 19.8669 11.168C19.8509 11.056 19.8269 10.968 19.7949 10.904C19.7789 10.84 19.7469 10.792 19.6989 10.76C19.6509 10.728 19.6189 10.712 19.6029 10.712C19.5869 10.696 19.5389 10.688 19.4589 10.688L19.3629 10.664C19.0429 10.584 18.8749 10.344 18.8589 9.944C18.8589 9.864 18.8669 9.792 18.8829 9.728C18.9149 9.648 18.9549 9.592 19.0029 9.56C19.0669 9.512 19.1069 9.48 19.1229 9.464C19.1549 9.448 19.2109 9.424 19.2909 9.392L19.4109 9.344C19.6669 9.232 19.9389 9.184 20.2269 9.2C20.6109 9.232 20.8909 9.248 21.0669 9.248C21.3069 9.248 21.4989 9.24 21.6429 9.224C21.7869 9.208 22.0109 9.2 22.3149 9.2C22.8109 9.2 23.1709 9.28 23.3949 9.44C23.6349 9.648 23.7069 9.848 23.6109 10.04C23.5309 10.216 23.3549 10.328 23.0829 10.376C22.7469 10.456 22.5789 10.552 22.5789 10.664C22.5629 10.744 22.5549 10.856 22.5549 11C22.5389 11.16 22.5469 11.424 22.5789 11.792C22.6109 12.112 22.5869 12.376 22.5069 12.584C22.4429 12.888 22.4189 13.216 22.4349 13.568L22.5069 14.624C22.5389 14.976 22.5549 15.24 22.5549 15.416C22.5709 15.624 22.5789 15.936 22.5789 16.352V17.12C22.5789 17.44 22.6749 17.592 22.8669 17.576H23.6109C23.8029 17.576 23.9869 17.528 24.1629 17.432C24.5469 17.208 24.7869 17.016 24.8829 16.856C25.1069 16.504 25.2429 16.088 25.2909 15.608L25.3389 14.96C25.3549 14.816 25.3629 14.6 25.3629 14.312C25.3309 13.768 25.3469 13.32 25.4109 12.968C25.4429 12.68 25.4589 12.48 25.4589 12.368C25.4749 11.76 25.5389 11.288 25.6509 10.952C25.7149 10.744 25.9789 10.368 26.4429 9.824C26.6669 9.568 26.9069 9.408 27.1629 9.344C27.4189 9.264 27.8509 9.192 28.4589 9.128C28.7629 9.128 29.0349 9.168 29.2749 9.248C29.3069 9.264 29.3549 9.288 29.4189 9.32C29.4829 9.336 29.5309 9.344 29.5629 9.344C29.6269 9.376 29.7229 9.408 29.8509 9.44C30.2669 9.536 30.6269 9.84 30.9309 10.352L31.1229 10.616C31.2029 10.808 31.2429 11.016 31.2429 11.24C31.2429 11.368 31.2269 11.56 31.1949 11.816C31.1469 11.992 31.1389 12.152 31.1709 12.296C31.2349 12.552 31.1869 12.808 31.0269 13.064C30.8509 13.336 30.5709 13.472 30.1869 13.472C29.8349 13.472 29.5869 13.384 29.4429 13.208C29.2829 12.92 29.2429 12.664 29.3229 12.44C29.4029 12.168 29.4269 11.888 29.3949 11.6C29.3469 11.264 29.2829 11.056 29.2029 10.976C29.1389 10.896 28.9629 10.856 28.6749 10.856C28.4669 10.856 28.3149 10.904 28.2189 11C28.1549 11.096 28.1149 11.168 28.0989 11.216C28.0349 11.312 27.9629 11.4 27.8829 11.48C27.7709 11.592 27.6829 11.8 27.6189 12.104C27.5869 12.328 27.5709 12.504 27.5709 12.632C27.5709 13.256 27.5549 13.688 27.5229 13.928C27.4749 14.344 27.4589 14.696 27.4749 14.984C27.5069 15.384 27.4749 15.744 27.3789 16.064C27.3149 16.208 27.2829 16.344 27.2829 16.472C27.2829 16.712 27.1789 16.992 26.9709 17.312C26.8429 17.536 26.7389 17.664 26.6589 17.696C26.5789 17.712 26.4989 17.792 26.4189 17.936C26.3869 17.968 26.3789 18 26.3949 18.032C26.4269 18.064 26.4429 18.088 26.4429 18.104C26.4589 18.12 26.4909 18.136 26.5389 18.152C26.5869 18.168 26.6189 18.184 26.6349 18.2L26.8989 18.272C26.9789 18.288 27.0669 18.344 27.1629 18.44C27.5309 18.696 27.7869 19.048 27.9309 19.496L28.0989 19.952C28.1149 19.984 28.1309 20.016 28.1469 20.048C28.1629 20.08 28.1789 20.112 28.1949 20.144C28.2109 20.16 28.2189 20.176 28.2189 20.192C28.2829 20.288 28.3229 20.376 28.3389 20.456C28.3869 20.552 28.4109 20.736 28.4109 21.008C28.4109 21.104 28.4269 21.52 28.4589 22.256C28.4589 22.56 28.4669 22.784 28.4829 22.928C28.4829 23.168 28.4749 23.328 28.4589 23.408C28.4429 23.488 28.4349 23.592 28.4349 23.72C28.4349 23.784 28.4189 23.88 28.3869 24.008C28.3389 24.248 28.3229 24.416 28.3389 24.512C28.3549 24.592 28.3629 24.664 28.3629 24.728C28.4589 25.144 28.5629 25.368 28.6749 25.4C28.8989 25.496 29.1869 25.4 29.5389 25.112C29.6189 25.032 29.6589 24.92 29.6589 24.776C29.6589 24.632 29.6829 24.528 29.7309 24.464C29.8109 24.352 29.9309 24.12 30.0909 23.768C30.1389 23.64 30.3069 23.592 30.5949 23.624L30.8829 23.696C30.9789 23.728 31.0429 23.744 31.0749 23.744C31.2509 23.792 31.3789 23.936 31.4589 24.176C31.4909 24.448 31.4989 24.648 31.4829 24.776C31.4669 24.968 31.3469 25.272 31.1229 25.688C30.8669 26.248 30.4909 26.656 29.9949 26.912C29.5309 27.152 28.9309 27.264 28.1949 27.248C27.9869 27.248 27.7949 27.192 27.6189 27.08C27.4429 26.968 27.2589 26.912 27.0669 26.912C27.0189 26.912 26.9709 26.904 26.9229 26.888C26.8749 26.872 26.8269 26.84 26.7789 26.792C26.7469 26.76 26.7149 26.728 26.6829 26.696C26.6509 26.664 26.6109 26.616 26.5629 26.552C26.5309 26.488 26.5069 26.44 26.4909 26.408C26.4749 26.376 26.4429 26.32 26.3949 26.24C26.3629 26.16 26.3389 26.104 26.3229 26.072C26.2429 25.88 26.2029 25.672 26.2029 25.448V24.776C26.2189 24.536 26.2029 24.28 26.1549 24.008C26.0749 23.768 26.0509 23.56 26.0829 23.384C26.1309 22.76 26.1389 22.24 26.1069 21.824C26.0589 21.52 25.9949 21.272 25.9149 21.08L25.8429 20.84L25.7469 20.528L25.6749 20.36C25.6109 20.264 25.5709 20.192 25.5549 20.144C25.4749 19.824 25.2909 19.592 25.0029 19.448C24.8909 19.368 24.7709 19.32 24.6429 19.304C24.5629 19.288 24.4749 19.264 24.3789 19.232C24.0429 19.12 23.5949 19.12 23.0349 19.232C22.7949 19.248 22.6749 19.424 22.6749 19.76C22.6749 20.096 22.6669 20.408 22.6509 20.696C22.6189 21.848 22.6029 22.752 22.6029 23.408V24.896C22.6029 25.104 22.6189 25.32 22.6509 25.544C22.6829 25.656 22.8029 25.768 23.0109 25.88L23.2269 25.952C23.3869 25.984 23.5069 26.04 23.5869 26.12C23.6669 26.232 23.6909 26.416 23.6589 26.672C23.6429 26.768 23.5229 26.864 23.2989 26.96C22.9149 27.136 22.3469 27.208 21.5949 27.176C21.3709 27.176 21.0989 27.16 20.7789 27.128C20.6029 27.112 20.4189 27.104 20.2269 27.104C19.5869 27.136 19.1949 27.112 19.0509 27.032C18.6349 26.84 18.5789 26.536 18.8829 26.12C18.9469 26.024 19.0589 25.968 19.2189 25.952C19.3789 25.952 19.5229 25.896 19.6509 25.784C19.9229 25.608 20.0909 25.184 20.1549 24.512L20.2269 23.84C20.2269 23.792 20.2429 23.592 20.2749 23.24ZM21.0909 11.144L21.2109 11.264L21.4029 11.096L21.3309 10.928L21.1869 10.952L21.0909 11.144ZM26.7789 11.648L26.7549 11.72L26.8989 11.768L26.9709 11.744V11.648H26.7789ZM27.1149 11.84L27.0909 11.936L27.2109 12.008L27.3549 11.816L27.2349 11.696L27.1149 11.84ZM25.8909 11.84L25.7709 12.008L25.8909 12.128L25.9149 12.224L26.0349 12.032H26.1309L26.2989 11.984L26.1069 11.792L25.8909 11.84ZM20.8509 12.056L20.7309 12.248L20.9229 12.224L20.9709 12.296H21.1149L21.0909 12.128L21.0189 12.008L20.9949 11.936L20.8509 12.056ZM26.1309 12.896L26.2509 12.92L26.3229 12.776L26.1789 12.632L25.9629 12.728L26.1309 12.896ZM20.9229 12.872L21.0429 13.016L21.2109 12.992L21.2349 12.872L21.0909 12.656L20.9229 12.872ZM26.8269 12.896L26.7549 12.992L26.8509 13.016L26.9949 12.944V12.896H26.8269ZM20.6109 13.808H20.8029V13.76L20.6829 13.712L20.6109 13.808ZM26.3229 14.288L26.4429 14.336V14.24L26.2509 14.12L26.3229 14.288ZM21.3069 17.408H21.4509L21.6189 17.36L21.6429 17.144L21.5469 17H21.3789L21.3069 17.144V17.408ZM20.7789 19.136L21.0189 19.184L21.0669 18.896L21.2349 18.92L21.5709 19.016L21.5469 18.632L21.2349 18.44L21.0429 18.416L20.7789 19.136ZM21.3069 20L21.4269 19.952V19.808H21.3549L21.3069 19.832V20ZM20.7069 20.432L20.8509 20.384L20.8989 20.192L20.7549 20.264L20.7069 20.432ZM27.4269 20.864L27.5469 20.912L27.6909 20.864L27.7629 20.72L27.5469 20.792L27.4989 20.744L27.4269 20.648V20.864ZM26.4909 20.984L26.3949 21.08L26.5149 21.224L26.5389 21.32L26.6109 21.416L26.6589 21.296L26.8269 21.224L26.8749 21.128L26.9469 21.08L26.7549 20.96L26.6349 20.912L26.4909 20.984ZM21.1149 20.984L20.9469 21.056L20.8029 21.224L20.9949 21.344L21.0669 21.584L21.1869 21.536L21.3069 21.416L21.5229 21.344L21.4989 21.104L21.3549 20.936L21.1149 20.984ZM26.6589 21.824L26.5389 21.872L26.6589 21.92H26.8269L26.9229 21.848L26.7789 21.824H26.6589ZM27.4029 21.992H27.5469L27.5949 21.968L27.5469 21.896L27.3789 21.944L27.4029 21.992ZM26.6109 22.856L26.6589 22.928L26.7549 22.88L26.7789 22.784L26.7549 22.712L26.6109 22.856ZM20.9469 25.808L21.0669 25.832L21.0909 25.76L20.9949 25.688L20.9469 25.808ZM21.6909 25.736L21.7149 25.808L21.7869 25.856H21.8829L21.9069 25.76L21.8109 25.688L21.6909 25.736Z" fill="white"/>
</svg>
